<svg aria-hidden="true" style="position: absolute; width: 0; height: 0; overflow: hidden;" version="1.1" xmlns="http://www.w3.org/2000/svg" xmlns:xlink="http://www.w3.org/1999/xlink">
<defs>
<symbol id="icon-check" viewBox="0 0 32 32">
<path d="M13.333 20.781l-4.391-4.391-1.885 1.885 6.276 6.276 12.943-12.943-1.885-1.885-11.057 11.057z"></path>
</symbol>
<symbol id="icon-down-type-one" viewBox="0 0 32 32">
<path d="M21.724 11.057l-5.724 5.724-5.724-5.724-1.885 1.885 7.609 7.609 7.609-7.609-1.885-1.885z"></path>
</symbol>
<symbol id="icon-left-type-one" viewBox="0 0 32 32">
<path d="M17.724 8.391l-7.609 7.609 7.609 7.609 1.885-1.885-5.724-5.724 5.724-5.724-1.885-1.885z"></path>
</symbol>
<symbol id="icon-right-type-one" viewBox="0 0 32 32">
<path d="M12.943 22.599l7.609-7.609-7.609-7.609-1.885 1.885 5.724 5.724-5.724 5.724 1.885 1.885z"></path>
</symbol>
<symbol id="icon-up-type-one" viewBox="0 0 32 32">
<path d="M8.391 19.057l1.885 1.885 5.724-5.724 5.724 5.724 1.885-1.885-7.609-7.609-7.609 7.609z"></path>
</symbol>
<symbol id="icon-down-type-two" viewBox="0 0 32 32">
<path d="M24.943 16.943l-1.885-1.885-5.724 5.724v-12.781h-2.667v12.781l-5.724-5.724-1.885 1.885 8.943 8.943 8.943-8.943z"></path>
</symbol>
<symbol id="icon-email" viewBox="0 0 32 32">
<path d="M26.667 5.333h-21.333c-1.471 0-2.667 1.196-2.667 2.667v16c0 1.471 1.196 2.667 2.667 2.667h21.333c1.471 0 2.667-1.196 2.667-2.667v-16c0-1.471-1.196-2.667-2.667-2.667zM26.667 8v0.681l-10.667 8.297-10.667-8.296v-0.683h21.333zM5.333 24v-11.941l9.848 7.66c0.233 0.183 0.522 0.283 0.819 0.283s0.585-0.1 0.819-0.283l9.848-7.66 0.003 11.941h-21.336z"></path>
</symbol>
<symbol id="icon-left-type-two" viewBox="0 0 32 32">
<path d="M16.943 23.057l-5.724-5.724h12.781v-2.667h-12.781l5.724-5.724-1.885-1.885-8.943 8.943 8.943 8.943 1.885-1.885z"></path>
</symbol>
<symbol id="icon-location" viewBox="0 0 32 32">
<path d="M16 18.667c2.941 0 5.333-2.392 5.333-5.333s-2.392-5.333-5.333-5.333c-2.941 0-5.333 2.392-5.333 5.333s2.392 5.333 5.333 5.333zM16 10.667c1.471 0 2.667 1.196 2.667 2.667s-1.196 2.667-2.667 2.667c-1.471 0-2.667-1.196-2.667-2.667s1.196-2.667 2.667-2.667z"></path>
<path d="M15.227 29.085c0.226 0.161 0.496 0.248 0.773 0.248s0.548-0.087 0.773-0.248c0.405-0.287 9.932-7.165 9.893-15.752 0-5.881-4.785-10.667-10.667-10.667s-10.667 4.785-10.667 10.66c-0.039 8.593 9.488 15.472 9.893 15.759zM16 5.333c4.412 0 8 3.588 8 8.007 0.028 5.917-5.851 11.231-8 12.973-2.148-1.744-8.028-7.059-8-12.98 0-4.412 3.588-8 8-8z"></path>
</symbol>
<symbol id="icon-menu" viewBox="0 0 32 32">
<path d="M5.333 8h21.333v2.667h-21.333v-2.667zM10.667 14.667h16v2.667h-16v-2.667zM17.333 21.333h9.333v2.667h-9.333v-2.667z"></path>
</symbol>
<symbol id="icon-minus" viewBox="0 0 32 32">
<path d="M6.667 14.667h18.667v2.667h-18.667v-2.667z"></path>
</symbol>
<symbol id="icon-phone" viewBox="0 0 32 32">
<path d="M23.61 16.391c-0.124-0.124-0.271-0.222-0.432-0.289s-0.335-0.102-0.51-0.102c-0.175 0-0.348 0.035-0.51 0.102s-0.309 0.165-0.432 0.289l-2.125 2.125c-0.985-0.293-2.824-0.96-3.989-2.125s-1.832-3.004-2.125-3.989l2.125-2.125c0.124-0.124 0.222-0.271 0.289-0.432s0.102-0.335 0.102-0.51c0-0.175-0.035-0.348-0.102-0.51s-0.165-0.309-0.289-0.432l-5.333-5.333c-0.124-0.124-0.271-0.222-0.432-0.289s-0.335-0.102-0.51-0.102c-0.175 0-0.348 0.035-0.51 0.102s-0.309 0.165-0.432 0.289l-3.616 3.616c-0.507 0.507-0.792 1.203-0.781 1.913 0.031 1.899 0.533 8.493 5.731 13.691s11.792 5.699 13.692 5.731h0.037c0.704 0 1.369-0.277 1.873-0.781l3.616-3.616c0.124-0.124 0.222-0.271 0.289-0.432s0.102-0.335 0.102-0.51c0-0.175-0.035-0.349-0.102-0.51s-0.165-0.309-0.289-0.432l-5.333-5.335zM23.44 25.34c-1.664-0.028-7.357-0.475-11.831-4.949-4.488-4.488-4.923-10.201-4.949-11.832l2.673-2.673 3.448 3.448-1.724 1.724c-0.157 0.157-0.272 0.35-0.335 0.562s-0.073 0.437-0.027 0.654c0.032 0.153 0.815 3.789 3.028 6.003s5.849 2.996 6.003 3.028c0.217 0.047 0.442 0.038 0.654-0.025s0.406-0.179 0.562-0.336l1.725-1.724 3.448 3.448-2.675 2.673z"></path>
</symbol>
<symbol id="icon-plus" viewBox="0 0 32 32">
<path d="M25.333 14.667h-8v-8h-2.667v8h-8v2.667h8v8h2.667v-8h8v-2.667z"></path>
</symbol>
<symbol id="icon-right-type-two" viewBox="0 0 32 32">
<path d="M15.057 23.057l1.885 1.885 8.943-8.943-8.943-8.943-1.885 1.885 5.724 5.724h-12.781v2.667h12.781l-5.724 5.724z"></path>
</symbol>
<symbol id="icon-star" viewBox="0 0 32 32">
<path d="M8.688 19.097l-1.987 8.603c-0.062 0.261-0.043 0.533 0.053 0.783s0.265 0.465 0.485 0.617c0.22 0.152 0.481 0.235 0.749 0.236s0.53-0.078 0.752-0.227l7.26-4.84 7.26 4.84c0.227 0.151 0.495 0.228 0.768 0.222s0.537-0.095 0.757-0.256c0.22-0.161 0.386-0.385 0.475-0.642s0.097-0.536 0.023-0.799l-2.439-8.533 6.048-5.443c0.194-0.174 0.332-0.402 0.398-0.654s0.056-0.518-0.027-0.765-0.238-0.464-0.444-0.624c-0.206-0.16-0.454-0.256-0.714-0.277l-7.601-0.605-3.289-7.281c-0.105-0.234-0.275-0.434-0.491-0.573s-0.467-0.214-0.724-0.214c-0.257 0-0.508 0.074-0.724 0.214s-0.386 0.339-0.491 0.573l-3.289 7.281-7.601 0.604c-0.255 0.020-0.5 0.114-0.703 0.269s-0.358 0.366-0.445 0.607c-0.087 0.241-0.103 0.502-0.046 0.752s0.185 0.478 0.369 0.656l5.619 5.476zM12.492 13.329c0.238-0.019 0.467-0.101 0.662-0.239s0.35-0.325 0.448-0.543l2.399-5.308 2.399 5.308c0.098 0.218 0.252 0.405 0.448 0.543s0.424 0.22 0.662 0.239l5.296 0.42-4.361 3.925c-0.379 0.341-0.529 0.867-0.391 1.357l1.671 5.847-4.981-3.321c-0.219-0.147-0.476-0.225-0.739-0.225s-0.521 0.078-0.739 0.225l-5.205 3.471 1.4-6.061c0.051-0.223 0.044-0.455-0.020-0.675s-0.184-0.419-0.348-0.579l-4.051-3.949 5.453-0.435z"></path>
</symbol>
<symbol id="icon-up-type-two" viewBox="0 0 32 32">
<path d="M14.667 11.219v12.781h2.667v-12.781l5.724 5.724 1.885-1.885-8.943-8.943-8.943 8.943 1.885 1.885 5.724-5.724z"></path>
</symbol>
<symbol id="icon-exit" viewBox="0 0 32 32">
<path d="M21.589 8.459l-5.657 5.656-5.656-5.656-1.885 1.885 5.656 5.656-5.656 5.656 1.885 1.885 5.656-5.656 5.657 5.656 1.885-1.885-5.656-5.656 5.656-5.656-1.885-1.885z"></path>
</symbol>
<symbol id="icon-LOGO" viewBox="0 0 3910 1024">
<path d="M91.886 549.544c-0.038 2.988-0.075 5.976-0.113 8.965 0.035-2.932 0.075-5.865 0.113-8.792v-0.172z"></path>
<path d="M714.817 111.157c12.749-0.678 26.484-1.387 38 1.182 6.484 1.446 10.794 3.822 14.499 9.5 2.388 13.030 4.51 25.924 4.999 39.182 1.047 28.107 0.815 56.424 0.549 84.682-0.126 12.816-0.275 25.641-0.275 38.409v243.454c0.009 7.992 0.214 21.439 0.503 37.818 0.987 57.353 2.611 150.612-2.546 171.185-3.7 14.732-11.231 21.518-24.003 29.044-11.404 1.448-23.301 1.741-35.091 1.997-6.167 0.14-12.325 0.242-18.362 0.549-56.846 2.886-116.876 8.727-169.090 32.861-13.978 6.461-27.988 14.061-40.271 23.408-6.298 4.794-13.368 11.45-20.866 18.548-18.697 17.701-40.303 38.135-60.682 39.27-23.494 1.299-45.763-18.814-66.318-37.362-9.778-8.82-19.195-17.264-28.137-22.91-21.69-13.694-46.221-24.264-70.545-32.228-40.124-13.121-82.636-19.861-124.727-22.36-6.355-0.386-12.918-0.344-19.5-0.321-12.211 0.042-24.575 0.088-36.091-2.453-10.031-2.23-16.503-7.322-24.045-14.001-5.523-13.121-7.229-29.352-7.909-43.501-1.217-25.297-0.909-50.902-0.591-76.409 0.142-11.311 0.266-22.616 0.273-33.862l0.182-215.318-0.182-162.954c-0.005-7.107-0.323-14.831-0.636-22.818-0.844-21.643-1.754-45.226 2.955-63.682 2.59-10.142 8.464-14.628 16.955-20.046 93.407-6.055 195.428 13.341 277.5 59 27.261 15.165 51.814 33.741 76.637 52.5 13.953-10.406 28.036-20.815 42.409-30.636 77.261-52.795 169.263-78.86 262.456-81.182 3.803-0.095 7.834-0.327 11.953-0.546zM704.047 184.293c-11.315 0.093-23.301-0.623-34.504 0.863-76.665 6.931-175.030 34.978-227.089 96.046-2.204 2.609-4.311 5.314-6.363 8.045l-0.136 479.455c8.512-6.186 16.944-12.586 25.591-18.59 71.625-42.789 161.229-50.134 242.865-56.003 0.005-169.83 2.262-340.016-0.363-509.816zM93.135 184.384c-1.757 70.945-1.371 142.178-1 213.273 0.153 29.141 0.314 58.269 0.318 87.366 0.005 21.378-0.272 42.924-0.546 64.498v0.182c-0.602 47.756-1.195 95.786 1.182 143.002 94.321 8.118 189.022 17.431 267.591 75.087-0.465-159.116 0.408-318.222 2.636-477.316-61.767-65.207-158.417-103.725-247.545-106.227-7.542-0.162-15.099-0.109-22.636 0.136z"></path>
<path d="M714.817 111.157v0zM752.817 112.338v0zM767.316 121.838l11.19-2.048-0.414-2.253-1.252-1.917-9.523 6.218zM772.315 161.020v0zM772.864 245.702v0zM772.589 527.565h-11.371v0.014l11.371-0.014zM773.092 565.383v0zM770.546 736.568v0zM746.543 765.612l1.434 11.283 2.323-0.298 2.020-1.187-5.776-9.798zM711.452 767.609v0zM693.090 768.158l-0.573-11.362h-0.005l0.577 11.362zM523.999 801.019v0zM483.728 824.427v0zM462.862 842.975v0zM402.181 882.246l0.626 11.357h0.008l-0.634-11.357zM335.863 844.884v0zM307.726 821.974v0zM237.181 789.746l3.538-10.808h-0.003l-3.535 10.808zM112.453 767.386l-0.683 11.352h0.008l0.675-11.352zM92.954 767.064v0zM56.862 764.611l-2.468 11.101 0.017 0.005 2.451-11.106zM32.817 750.611l-10.483 4.413 1.004 2.388 1.938 1.713 7.541-8.513zM24.908 707.109v0zM24.317 630.7v0zM24.59 596.838v0zM24.772 381.52l11.374 0.010v-0.022l-11.374 0.013zM24.59 218.566v0zM23.953 195.747v0zM26.908 132.066v0zM43.862 112.020l-0.736-11.35-2.918 0.189-2.465 1.573 6.118 9.588zM321.362 171.020v0zM397.999 223.52l-6.858 9.074 6.812 5.148 6.845-5.104-6.799-9.118zM440.408 192.884v0zM702.864 111.702l0.279 11.37h0.005l-0.284-11.37zM704.047 184.293l11.371-0.176-0.177-11.29-11.292 0.093 0.098 11.373zM669.542 185.156l1.029 11.338 0.47-0.063-1.499-11.275zM442.453 281.202l-8.655-7.379-0.033 0.039 8.688 7.34zM436.090 289.247l-9.094-6.831-2.279 3.034-0.001 3.794 11.374 0.003zM435.954 768.703l-11.374-0.005-0.007 22.337 18.068-13.135-6.687-9.197zM461.544 750.113l-5.833-9.765-0.335 0.2-0.32 0.223 6.488 9.342zM704.41 694.109l0.815 11.348 10.557-0.759v-10.589h-11.371zM93.135 184.384l-0.371-11.368-10.734 0.35-0.266 10.736 11.37 0.282zM92.135 397.656v0zM92.453 485.022v0zM91.908 549.52l-11.373-0.144v0.144h11.373zM91.908 549.702l11.374 0.144v-0.144h-11.374zM93.090 692.703l-11.359 0.573 0.499 9.905 9.885 0.852 0.976-11.329zM360.681 767.791l-6.729 9.174 18.169 13.331-0.066-22.537-11.373 0.033zM363.317 290.475l11.372 0.159 0.065-4.624-3.18-3.357-8.257 7.822zM115.772 184.247l0.319-11.37-0.076-0.001-0.243 11.371zM714.817 111.157l0.605 11.358c13.149-0.699 25.218-1.239 34.918 0.925l4.952-22.202c-13.335-2.974-28.733-2.095-41.081-1.438l0.605 11.358zM752.817 112.338l-2.476 11.101c2.509 0.559 3.835 1.136 4.696 1.678 0.768 0.485 1.657 1.252 2.755 2.938l19.046-12.436c-2.607-3.992-5.725-7.252-9.658-9.736-3.84-2.426-7.908-3.76-11.888-4.647l-2.476 11.101zM767.316 121.838l-11.185 2.048c2.374 12.97 4.361 25.176 4.822 37.555l22.728-0.842c-0.521-14.136-2.779-27.718-5.176-40.809l-11.19 2.048zM772.315 161.020l-11.362 0.423c1.033 27.802 0.805 55.862 0.535 84.15l22.747 0.216c0.27-28.227 0.507-56.801-0.554-85.213l-11.366 0.423zM772.864 245.702l-11.376-0.108c-0.121 12.78-0.27 25.68-0.27 38.518h22.747c0-12.699 0.149-25.449 0.27-38.301l-11.371-0.108zM772.589 284.111h-11.371v243.454h22.747v-243.454h-11.376zM772.589 527.565l-11.371 0.014c0.005 8.104 0.214 21.653 0.498 38.004l22.747-0.396c-0.284-16.407-0.489-29.757-0.498-37.637l-11.376 0.014zM773.092 565.383l-11.376 0.195c0.498 28.705 1.15 66.234 1.033 99.151-0.056 16.463-0.307 31.665-0.852 43.971-0.568 12.688-1.42 21.243-2.383 25.097l22.063 5.534c1.61-6.428 2.495-17.25 3.044-29.622 0.568-12.758 0.819-28.314 0.875-44.902 0.116-33.196-0.54-70.973-1.033-99.621l-11.371 0.195zM770.546 736.568l-11.031-2.774c-1.475 5.869-3.528 9.551-6.107 12.483-2.751 3.123-6.595 5.972-12.637 9.537l11.548 19.596c6.726-3.961 13.028-8.266 18.167-14.103 5.302-6.028 8.862-13.107 11.092-21.969l-11.031-2.769zM746.543 765.612l-1.429-11.283c-10.724 1.359-22.039 1.648-33.913 1.908l0.503 22.742c11.702-0.256 24.185-0.549 36.273-2.085l-1.434-11.283zM711.452 767.609l-0.251-11.371c-6.079 0.135-12.442 0.247-18.683 0.559l0.573 11.362 0.573 11.357c5.832-0.293 11.781-0.396 18.041-0.535l-0.251-11.371zM693.090 768.158l-0.577-11.362c-56.93 2.895-118.91 8.769-173.284 33.899l9.542 20.648c50.050-23.133 108.134-28.942 164.897-31.828l-0.577-11.357zM523.999 801.019l-4.771-10.324c-14.383 6.647-29.203 14.648-42.389 24.683l13.773 18.102c11.38-8.662 24.585-15.863 38.158-22.137l-4.771-10.324zM483.728 824.427l-6.889-9.048c-6.884 5.236-14.422 12.358-21.796 19.335l15.638 16.519c7.624-7.215 14.22-13.405 19.931-17.752l-6.884-9.053zM462.862 842.975l-7.819-8.262c-9.463 8.96-18.994 17.953-28.571 24.902-9.75 7.075-18.055 10.892-24.926 11.278l0.634 11.352 0.634 11.357c13.507-0.754 26.195-7.722 37.017-15.574 10.995-7.978 21.615-18.050 30.85-26.796l-7.819-8.257zM402.181 882.246l-0.626-11.357c-8.278 0.456-17.268-2.821-27.445-9.425-10.174-6.6-20.197-15.611-30.628-25.023l-15.239 16.887c10.125 9.137 21.514 19.451 33.486 27.22 11.97 7.768 25.862 13.894 41.078 13.056l-0.626-11.357zM335.863 844.884l7.618-8.443c-9.582-8.648-19.754-17.813-29.681-24.083l-12.147 19.233c7.956 5.027 16.619 12.744 26.592 21.737l7.619-8.443zM307.726 821.974l6.072-9.616c-22.684-14.322-48.124-25.251-73.079-33.42l-7.076 21.62c23.693 7.754 47.316 17.967 68.011 31.032l6.072-9.616zM237.181 789.746l3.535-10.808c-41.261-13.494-84.773-20.364-127.588-22.91l-0.675 11.357-0.675 11.352c41.368 2.458 82.88 9.072 121.867 21.821l3.535-10.813zM112.453 767.386l0.683-11.357c-6.79-0.405-13.744-0.358-20.222-0.335l0.039 11.371 0.038 11.376c6.686-0.023 12.857-0.061 18.779 0.298l0.683-11.352zM92.954 767.064l-0.039-11.371c-12.473 0.042-23.535 0.033-33.601-2.188l-4.903 22.211c12.966 2.863 26.631 2.76 38.581 2.723l-0.038-11.376zM56.862 764.611l2.469-11.101c-7.041-1.569-11.682-4.957-18.973-11.413l-15.082 17.026c7.793 6.903 16.097 13.694 29.118 16.589l2.468-11.101zM32.817 750.611l10.483-4.413c-4.695-11.152-6.36-25.665-7.031-39.633l-22.721 1.094c0.689 14.322 2.435 32.275 8.787 47.365l10.483-4.413zM24.908 707.109l11.361-0.545c-1.198-24.902-0.897-50.162-0.579-75.72l-22.746-0.284c-0.317 25.446-0.633 51.395 0.603 77.098l11.361-0.549zM24.317 630.7l11.373 0.144c0.142-11.32 0.267-22.682 0.274-34.001l-22.747-0.009c-0.007 11.171-0.13 22.416-0.272 33.727l11.373 0.14zM24.59 596.838l11.374 0.009 0.182-215.318-22.747-0.019-0.182 215.318 11.374 0.009zM24.772 381.52l11.374-0.013-0.182-162.955-22.747 0.026 0.182 162.954 11.374-0.013zM24.59 218.566l11.374-0.008c-0.005-7.375-0.335-15.346-0.645-23.256l-22.73 0.89c0.316 8.064 0.623 15.54 0.628 22.38l11.374-0.007zM23.953 195.747l11.365-0.443c-0.864-22.155-1.604-43.907 2.61-60.427l-22.041-5.623c-5.202 20.392-4.123 45.805-3.299 66.937l11.365-0.443zM26.908 132.066l11.020 2.814c1.457-5.706 4.047-8.164 12.053-13.272l-12.236-19.176c-8.976 5.727-18.134 12.243-21.857 26.819l11.020 2.814zM43.862 112.020l0.736 11.35c91.516-5.933 191.31 13.124 271.235 57.589l11.059-19.878c-84.22-46.855-188.467-66.589-283.765-60.411l0.736 11.35zM321.362 171.020l-5.529 9.939c26.451 14.715 50.379 32.795 75.308 51.635l13.716-18.148c-24.715-18.679-49.894-37.749-77.965-53.366l-5.529 9.939zM397.999 223.52l6.799 9.118c13.948-10.402 27.865-20.687 42.026-30.363l-12.834-18.782c-14.585 9.966-28.833 20.5-42.792 30.91l6.799 9.117zM440.408 192.884l6.417 9.391c75.22-51.398 165.020-76.927 256.319-79.202l-0.279-11.37-0.284-11.37c-95.088 2.37-189.286 28.97-268.589 83.161l6.417 9.391zM702.864 111.702l0.284 11.37c4.003-0.1 8.243-0.344 12.274-0.558l-1.21-22.715c-4.203 0.223-8.034 0.443-11.632 0.533l0.284 11.37zM704.047 184.293l-0.098-11.373c-10.217 0.084-23.771-0.648-35.901 0.962l1.494 11.275 1.499 11.275c10.273-1.363 20.685-0.663 33.098-0.765l-0.093-11.373zM669.542 185.156l-1.024-11.327c-39.182 3.543-83.987 12.478-125.798 28.422-41.723 15.909-81.226 39.085-108.922 71.572l17.311 14.757c24.362-28.579 60.077-49.961 99.715-65.075 39.55-15.080 82.264-23.633 119.743-27.021l-1.024-11.328zM442.453 281.202l-8.688-7.34c-2.393 2.833-4.642 5.723-6.769 8.554l18.187 13.663c1.978-2.632 3.943-5.151 5.958-7.537l-8.688-7.34zM436.090 289.247l-11.374-0.003-0.136 479.454 22.747 0.009 0.136-479.457-11.373-0.003zM435.954 768.703l6.687 9.197c8.779-6.381 16.865-12.525 25.392-18.446l-12.977-18.683c-8.766 6.088-17.545 12.739-25.79 18.73l6.688 9.202zM461.544 750.113l5.833 9.761c68.925-41.169 155.727-48.514 237.847-54.416l-0.815-11.348-0.819-11.343c-81.147 5.837-173.554 13.182-247.879 57.581l5.833 9.765zM704.41 694.109h11.371c0.005-169.621 2.267-340.083-0.363-509.992l-22.747 0.352c2.63 169.69 0.368 339.6 0.363 509.64h11.376zM93.135 184.384l-11.37-0.282c-1.762 71.145-1.374 142.55-1.004 213.614l22.747-0.119c-0.371-71.127-0.755-142.187 0.997-212.932l-11.37-0.282zM92.135 397.656l-11.374 0.060c0.154 29.149 0.314 58.246 0.318 87.306l22.747-0.005c-0.005-29.129-0.165-58.288-0.318-87.421l-11.373 0.060zM92.453 485.022h-11.373c0.004 21.295-0.271 42.761-0.545 64.354l22.745 0.289c0.273-21.56 0.551-43.18 0.546-64.647l-11.374 0.005zM91.908 549.52h-11.373v0.182h22.747v-0.182h-11.374zM91.908 549.702l-11.372-0.144c-0.601 47.695-1.203 96.088 1.195 143.718l22.718-1.145c-2.356-46.797-1.771-94.469-1.168-142.285l-11.373-0.144zM93.090 692.703l-0.976 11.329c94.761 8.159 186.22 17.441 261.837 72.932l13.458-18.344c-81.521-59.82-179.463-69.167-273.344-77.251l-0.976 11.334zM360.681 767.791l11.373-0.033c-0.464-159.050 0.408-318.094 2.635-477.124l-22.745-0.318c-2.229 159.158-3.102 318.331-2.638 477.512l11.374-0.037zM363.317 290.475l8.257-7.822c-64.082-67.651-163.718-107.198-255.483-109.775l-0.639 22.738c86.491 2.428 180.156 39.917 239.608 102.68l8.257-7.821zM115.772 184.247l0.243-11.371c-7.756-0.166-15.518-0.112-23.25 0.14l0.741 22.736c7.343-0.24 14.695-0.29 22.023-0.133l0.243-11.371z"></path>
<path d="M1064.052 163.504c91.108-1.583 244.55-4.264 295.089 15.091 38.591 14.787 71.419 43.877 88.232 81.909 16.566 37.494 17.743 87.1 2.723 125.272-16.044 40.758-45.48 57.986-83.544 74.409 2.937 1.070 5.93 2.107 8.909 3.136 8.155 2.816 16.37 5.67 24.045 9.454 35.151 17.659 62.017 48.361 74.822 85.546 15.467 45.605 9.523 96.694-11.413 139.408-15.611 26.899-37.497 47.718-64.591 62.864-23.836 13.331-47.411 18.655-74.314 22.225-40.899 5.437-278.156 9.011-307.954-1.136-4.017-1.364-8.024-2.89-9.868-6.861-4.389-9.514-4.99-24.097-5.45-35.319l-0.14-3.091c-2.858-63.777-1.918-128.41-1.001-192.773 0.41-28.63 0.791-57.214 0.866-85.638 0.070-27.389-0.279-54.97-0.638-82.591-0.694-53.852-1.368-107.909 1.094-161.182 0.535-11.547 1.517-24.425 5.679-35.273 3.184-8.283 7.247-11.14 15.048-14.818 11.432-0.078 25.898-0.349 42.408-0.636zM1291.827 509.687c-33.21-7.917-138.035-2.434-177.957-2.411l0.047 182.002c46.843 0.093 148.82 6.004 188.956-4.273 14.825-3.798 26.587-9.751 37.86-20.094 18.060-21.29 27.429-42.766 24.73-71.317-2.406-25.377-13.251-46.964-33.001-63.274-11.795-9.868-25.707-16.929-40.634-20.634zM1146.964 255.822c-12.642 0.408-23.994 0.759-33.14 0.773l0.093 162c10.636 0.030 23.589 0.365 37.725 0.728 46.732 1.196 106.338 2.732 137.458-5.228 14.494-3.71 26.498-9.572 38.088-19 15.211-18.423 23.501-39.463 21.546-63.682-1.713-21.294-11.874-42.131-28.863-55.318-31.991-24.818-115.861-22.114-172.907-20.273z"></path>
<path d="M2003.987 525.852c-17.52-131.494-138.342-223.871-269.819-206.294-131.379 17.565-223.665 138.27-206.178 269.647 17.492 131.389 138.147 223.744 269.545 206.341 131.496-17.445 223.944-138.212 206.452-269.694zM1749.541 421.273c26.685-1.328 50.223-0.871 73.891 13.551 26.563 16.191 43.087 43.854 50.283 73.564 10.198 42.124 7.81 100.129-15.881 137.593-16.975 26.843-40.63 38.717-70.577 45.317-28.737 2.886-57.251 0.182-81.873-16.333-25.963-17.427-41.081-45.861-46.955-75.976-8.346-42.766-5.725-98.337 20.112-134.953 17.734-25.129 41.37-37.517 71-42.763z"></path>
<path d="M2519.249 524.4c-18.153-131.461-139.622-223.176-271.034-204.648-130.89 18.455-222.152 139.332-204.069 270.273 18.088 130.909 138.715 222.538 269.694 204.819 131.505-17.79 223.562-138.989 205.41-270.443zM2262.928 421.3c25.958-2.134 51.070-1.328 74.408 11.747 27.709 15.521 44.632 42.769 52.527 72.851 11.329 43.227 9.095 98.979-14.583 137.947-16.766 27.615-40.671 40.467-71.242 47.337-28.616 3.71-56.827 0.521-81.441-15.649-26.27-17.268-41.514-45.382-47.905-75.567-9.007-42.654-6.093-97.597 18.79-134.671 16.877-25.161 40.378-38.003 69.446-43.995z"></path>
<path d="M2614.975 144.088c1.797-0.168 3.593-0.298 5.39-0.362 17.836-0.626 57.553-4.081 69.655 12.247 5.162 6.956 5.911 21.49 6.549 30.066 2.709 36.227 0.526 74.12 0.526 110.502l0.042 214.231c25.344-30.12 54.505-57.697 81.231-86.673 26.387-28.618 51.754-61.529 80.98-87.020 6.963-6.071 12.241-9.288 21.248-11.744 18.674-5.084 86.328-8.851 100.566 1.283 3.64 2.587 6.735 7.6 6.461 12.179-1.275 20.388-135.983 153.208-159.46 176.453 43.199 62.79 86.761 125.296 130.709 187.555 10.938 15.881 42.035 49.957 38.032 69.632-0.866 4.278-4.254 8.029-8.029 10.1-20.201 11.124-97.792 3.798-122.019-4.096-17.31-17.403-31.414-42.561-45.335-62.781l-84.298-122.908-40.29 35.011c-0.158 32.233 9.486 127.064-11.236 148.675-9.281 9.691-21.406 10.44-34.029 10.557-19.288 0.205-56.595 3.412-70.698-10.375-3.617-37.125-2.411-74.701-2.434-111.96l-0.070-159.12 0.023-218.025c0-38.748-1.387-78.073 0.41-116.764 0.251-5.204 0.386-9.697 3.482-14.149 7.415-10.73 20.857-10.919 32.596-12.513z"></path>
<path d="M3434.543 321.134c25.432-0.552 76.069-6.178 98.951 3.301 8.578 3.55 12.465 12.306 16.31 20.322 16.291 33.955 26.959 73.076 40.062 108.535 22.812 61.696 47.379 122.722 70.516 184.273 13.442-34.737 106.296-293.565 121.516-306.477 7.461-6.319 21.606-7.677 30.911-7.95 19.586-0.573 56.166-4.9 70.996 8.783 3.752 8.819 3.254 13.642 1.094 23.095-7.601 33.013-23.771 67.314-35.626 99.14l-76.181 204.746-51.498 139.581c-10.352 28.16-19.47 58.298-32.894 85.094-7.485 14.922-16.584 28.914-28.002 41.128-27.364 29.324-63.167 41.923-102.591 43.292-16.901 0.591-45.88 3.728-58.917-8.35-8.322-16.835-9.030-56.097-3.658-74.249 5.232-17.673 43.925-14.308 59.527-23.087 25.116-14.127 31.963-41.947 38.442-67.812-20.173-60.984-172.037-433.913-170.557-455.002 0.638-9.158 4.957-13.084 11.599-18.362z"></path>
<path d="M3185.031 319.335c12.739-1.943 26.726-1.413 39.671-1.281 51.479 0.514 109.075 11.365 146.153 50.088 17.036 17.802 29.459 44.696 27.592 69.778-0.317 4.274-1.499 10.411-5.139 12.986-18.497 13.069-68.971 10.505-90.945 7.55-19.493-2.627-17.994-15.662-30.003-29.929-13.242-15.7-32.6-23.416-52.755-24.879-22.426-1.629-50.79 5.669-67.491 21.415-7.368 6.953-15.146 24.87-13.94 34.897 5.185 43.723 128.386 49.35 163.849 58.278 30.068 7.573 61.030 18.832 85.053 39.075 22.789 19.2 33.094 45.359 35.416 74.612 2.844 36.054-7.666 70.586-31.595 97.88-41.584 47.43-102.163 61.375-162.439 65.787-46.336 1.569-96.2-4.776-137.872-26.182-30.231-15.537-57.53-39.81-67.607-73.29-4.138-13.675-6.893-29.687 0.386-42.654 21.066-16.514 78.615-10.054 104.183-9.123 8.625 13.126 13.898 28.528 25.684 39.401 19.856 18.311 49.157 23.841 75.385 22.542 21.448-1.071 44.288-7.163 58.666-24.204 7.936-9.393 12.53-21.448 11.348-33.848-4.752-49.59-126.906-49.408-164.71-58.14-27.299-6.279-55.142-17.357-77.251-34.872-23.291-18.493-38.172-43.366-40.993-73.174-3.137-36.372 8.076-72.526 31.255-100.729 35.011-42.429 85.35-56.83 138.1-61.984z"></path>
</symbol>
</defs>
</svg>