<svg width="84" height="36" viewBox="0 0 84 36" fill="none" xmlns="http://www.w3.org/2000/svg">
<g clip-path="url(#clip0_8202_61235)">
<path d="M1.97411 18.8066C1.9733 18.8708 1.97249 18.935 1.97168 18.9992C1.97244 18.9362 1.9733 18.8732 1.97411 18.8103V18.8066Z" fill="#FEFEFD"/>
<path d="M15.3574 9.38813C15.6313 9.37357 15.9264 9.35833 16.1738 9.41352C16.3131 9.44458 16.4057 9.49563 16.4853 9.61762C16.5366 9.89757 16.5822 10.1746 16.5927 10.4594C16.6152 11.0633 16.6102 11.6717 16.6045 12.2788C16.6018 12.5541 16.5986 12.8296 16.5986 13.1039V18.3344C16.5988 18.5061 16.6032 18.795 16.6094 19.1469C16.6306 20.3791 16.6655 22.3827 16.5547 22.8247C16.4752 23.1412 16.3134 23.287 16.039 23.4487C15.794 23.4798 15.5384 23.4861 15.2851 23.4916C15.1526 23.4946 15.0203 23.4968 14.8906 23.5034C13.6693 23.5654 12.3796 23.6909 11.2578 24.2094C10.9575 24.3482 10.6565 24.5115 10.3926 24.7123C10.2573 24.8153 10.1054 24.9583 9.94431 25.1108C9.54261 25.4911 9.07843 25.9301 8.6406 25.9545C8.13585 25.9823 7.65742 25.5503 7.2158 25.1518C7.00573 24.9623 6.8034 24.7809 6.6113 24.6596C6.14531 24.3654 5.61828 24.1383 5.09568 23.9672C4.23364 23.6853 3.3203 23.5405 2.41599 23.4868C2.27945 23.4785 2.13846 23.4794 1.99705 23.4799C1.7347 23.4808 1.46907 23.4818 1.22165 23.4272C1.00615 23.3793 0.867093 23.2699 0.705053 23.1264C0.586388 22.8445 0.549743 22.4958 0.535132 22.1918C0.508981 21.6483 0.515612 21.0982 0.522436 20.5502C0.525489 20.3072 0.52815 20.0643 0.528296 19.8227L0.532202 15.1967L0.528296 11.6957C0.528192 11.543 0.521346 11.3771 0.514624 11.2055C0.496492 10.7405 0.476943 10.2339 0.5781 9.83735C0.63374 9.61946 0.759948 9.52307 0.942358 9.40668C2.94915 9.27659 5.14101 9.6933 6.90427 10.6743C7.48996 11.0001 8.01748 11.3992 8.55076 11.8022C8.85053 11.5786 9.15309 11.355 9.46189 11.144C11.1218 10.0097 13.0984 9.44974 15.1006 9.39985C15.1823 9.39781 15.2689 9.39283 15.3574 9.38813ZM15.126 10.9594C14.8829 10.9614 14.6254 10.946 14.3847 10.978C12.7376 11.1269 10.6243 11.7295 9.50583 13.0414C9.45847 13.0975 9.41321 13.1556 9.36912 13.2143L9.36619 23.5151C9.54906 23.3822 9.73023 23.2447 9.91599 23.1157C11.4548 22.1964 13.3799 22.0386 15.1338 21.9125C15.1339 18.2638 15.1824 14.6075 15.126 10.9594ZM2.00095 10.9614C1.9632 12.4856 1.9715 14.016 1.97947 15.5434C1.98276 16.1695 1.98621 16.7953 1.9863 17.4204C1.9864 17.8797 1.98045 18.3426 1.97458 18.8061V18.81C1.96165 19.836 1.94891 20.8679 1.99998 21.8823C4.02641 22.0567 6.06099 22.2568 7.749 23.4956C7.73902 20.077 7.75777 16.6587 7.80564 13.2407C6.47861 11.8397 4.40215 11.0122 2.48728 10.9584C2.32524 10.955 2.16289 10.9561 2.00095 10.9614Z" fill="#010101"/>
<path d="M15.3574 9.38813L15.3704 9.63214L15.3704 9.63214L15.3574 9.38813ZM16.1738 9.41352L16.1206 9.65202L16.1206 9.65202L16.1738 9.41352ZM16.4853 9.61762L16.7257 9.57362L16.7168 9.52522L16.6899 9.48403L16.4853 9.61762ZM16.5927 10.4594L16.3486 10.4685L16.3486 10.4685L16.5927 10.4594ZM16.6045 12.2788L16.8488 12.2811V12.2811L16.6045 12.2788ZM16.5986 18.3344H16.3543V18.3347L16.5986 18.3344ZM16.6094 19.1469L16.8537 19.1427V19.1427L16.6094 19.1469ZM16.5547 22.8247L16.7917 22.8842L16.7917 22.8841L16.5547 22.8247ZM16.039 23.4487L16.0698 23.6911L16.1197 23.6847L16.1631 23.6592L16.039 23.4487ZM15.2851 23.4916L15.2797 23.2473H15.2797L15.2851 23.4916ZM14.8906 23.5034L14.8783 23.2593L14.8782 23.2593L14.8906 23.5034ZM11.2578 24.2094L11.3603 24.4312L11.3603 24.4312L11.2578 24.2094ZM10.3926 24.7123L10.5405 24.9068L10.5405 24.9068L10.3926 24.7123ZM9.94431 25.1108L9.77633 24.9333L9.77632 24.9333L9.94431 25.1108ZM8.6406 25.9545L8.65405 26.1985L8.65422 26.1985L8.6406 25.9545ZM7.2158 25.1518L7.37949 24.9704L7.37947 24.9704L7.2158 25.1518ZM6.6113 24.6596L6.74179 24.453L6.74175 24.453L6.6113 24.6596ZM5.09568 23.9672L5.17169 23.735L5.17163 23.735L5.09568 23.9672ZM2.41599 23.4868L2.40132 23.7307L2.40149 23.7307L2.41599 23.4868ZM1.99705 23.4799L1.99622 23.2356H1.99622L1.99705 23.4799ZM1.22165 23.4272L1.16862 23.6657L1.16899 23.6658L1.22165 23.4272ZM0.705053 23.1264L0.479835 23.2212L0.501411 23.2725L0.543045 23.3093L0.705053 23.1264ZM0.535132 22.1918L0.779206 22.1801L0.779206 22.1801L0.535132 22.1918ZM0.522436 20.5502L0.278099 20.5472L0.278099 20.5472L0.522436 20.5502ZM0.528296 19.8227L0.283939 19.8225L0.283939 19.8226L0.528296 19.8227ZM0.532202 15.1967L0.776559 15.1969L0.776558 15.1964L0.532202 15.1967ZM0.528296 11.6957L0.283939 11.6959L0.283939 11.696L0.528296 11.6957ZM0.514624 11.2055L0.270453 11.215L0.270455 11.2151L0.514624 11.2055ZM0.5781 9.83735L0.341342 9.77689L0.341328 9.77694L0.5781 9.83735ZM0.942358 9.40668L0.926551 9.16284L0.86387 9.1669L0.810919 9.20069L0.942358 9.40668ZM6.90427 10.6743L6.78548 10.8878L6.78548 10.8878L6.90427 10.6743ZM8.55076 11.8022L8.40342 11.9971L8.54978 12.1077L8.69684 11.9981L8.55076 11.8022ZM9.46189 11.144L9.59975 11.3457L9.59975 11.3457L9.46189 11.144ZM15.1006 9.39985L15.1066 9.64413L15.1067 9.64413L15.1006 9.39985ZM15.126 10.9594L15.3703 10.9556L15.3665 10.7131L15.1239 10.7151L15.126 10.9594ZM14.3847 10.978L14.4068 11.2215L14.4169 11.2202L14.3847 10.978ZM9.50583 13.0414L9.31988 12.8829L9.31918 12.8837L9.50583 13.0414ZM9.36912 13.2143L9.17375 13.0675L9.12478 13.1327L9.12476 13.2142L9.36912 13.2143ZM9.36619 23.5151L9.12183 23.515L9.12169 23.9949L9.50986 23.7127L9.36619 23.5151ZM9.91599 23.1157L9.79068 22.9059L9.78348 22.9102L9.7766 22.915L9.91599 23.1157ZM15.1338 21.9125L15.1513 22.1563L15.3781 22.14L15.3781 21.9125L15.1338 21.9125ZM2.00095 10.9614L1.99299 10.7171L1.76238 10.7247L1.75667 10.9553L2.00095 10.9614ZM1.97947 15.5434L1.73511 15.5447V15.5447L1.97947 15.5434ZM1.9863 17.4204L1.74195 17.4204V17.4204L1.9863 17.4204ZM1.97458 18.8061L1.73023 18.803V18.8061H1.97458ZM1.97458 18.81L2.21894 18.8131V18.81H1.97458ZM1.99998 21.8823L1.75593 21.8946L1.76665 22.1074L1.97902 22.1257L1.99998 21.8823ZM7.749 23.4956L7.60443 23.6926L7.99477 23.979L7.99335 23.4948L7.749 23.4956ZM7.80564 13.2407L8.04997 13.2441L8.05136 13.1448L7.98304 13.0726L7.80564 13.2407ZM2.48728 10.9584L2.49414 10.7142L2.49251 10.7141L2.48728 10.9584ZM15.3574 9.38813L15.3704 9.63214C15.6529 9.61712 15.9122 9.60553 16.1206 9.65202L16.1738 9.41352L16.227 9.17502C15.9405 9.11113 15.6097 9.13002 15.3444 9.14412L15.3574 9.38813ZM16.1738 9.41352L16.1206 9.65202C16.1745 9.66402 16.203 9.67642 16.2215 9.68808C16.238 9.6985 16.2571 9.71497 16.2807 9.75121L16.4853 9.61762L16.6899 9.48403C16.6339 9.39827 16.5669 9.32823 16.4824 9.27486C16.3999 9.22274 16.3125 9.19408 16.227 9.17502L16.1738 9.41352ZM16.4853 9.61762L16.245 9.66162C16.296 9.94028 16.3387 10.2025 16.3486 10.4685L16.5927 10.4594L16.8369 10.4504C16.8257 10.1467 16.7772 9.85487 16.7257 9.57362L16.4853 9.61762ZM16.5927 10.4594L16.3486 10.4685C16.3708 11.0658 16.3659 11.6687 16.3601 12.2764L16.6045 12.2788L16.8488 12.2811C16.8546 11.6746 16.8597 11.0608 16.8369 10.4503L16.5927 10.4594ZM16.6045 12.2788L16.3601 12.2764C16.3575 12.551 16.3543 12.8281 16.3543 13.1039H16.5986H16.843C16.843 12.8311 16.8462 12.5572 16.8488 12.2811L16.6045 12.2788ZM16.5986 13.1039H16.3543V18.3344H16.5986H16.843V13.1039H16.5986ZM16.5986 18.3344L16.3543 18.3347C16.3544 18.5088 16.3589 18.7999 16.365 19.1512L16.6094 19.1469L16.8537 19.1427C16.8476 18.7902 16.8432 18.5034 16.843 18.3341L16.5986 18.3344ZM16.6094 19.1469L16.365 19.1511C16.3757 19.7678 16.3897 20.5741 16.3872 21.2813C16.386 21.635 16.3806 21.9616 16.3689 22.226C16.3567 22.4986 16.3384 22.6824 16.3177 22.7652L16.5547 22.8247L16.7917 22.8841C16.8263 22.746 16.8453 22.5135 16.8571 22.2477C16.8693 21.9736 16.8747 21.6394 16.8759 21.283C16.8784 20.5698 16.8643 19.7582 16.8537 19.1427L16.6094 19.1469ZM16.5547 22.8247L16.3177 22.7651C16.286 22.8912 16.2419 22.9703 16.1865 23.0333C16.1274 23.1004 16.0448 23.1616 15.915 23.2382L16.039 23.4487L16.1631 23.6592C16.3076 23.5741 16.443 23.4816 16.5534 23.3562C16.6673 23.2267 16.7438 23.0746 16.7917 22.8842L16.5547 22.8247ZM16.039 23.4487L16.0083 23.2063C15.7779 23.2355 15.5348 23.2417 15.2797 23.2473L15.2851 23.4916L15.2905 23.7359C15.5419 23.7304 15.8101 23.7241 16.0698 23.6911L16.039 23.4487ZM15.2851 23.4916L15.2797 23.2473C15.1491 23.2502 15.0124 23.2526 14.8783 23.2593L14.8906 23.5034L14.9029 23.7474C15.0282 23.7411 15.156 23.7389 15.2905 23.7359L15.2851 23.4916ZM14.8906 23.5034L14.8782 23.2593C13.6551 23.3215 12.3235 23.4477 11.1553 23.9876L11.2578 24.2094L11.3603 24.4312C12.4356 23.9342 13.6835 23.8094 14.903 23.7474L14.8906 23.5034ZM11.2578 24.2094L11.1553 23.9876C10.8463 24.1304 10.5279 24.3023 10.2446 24.5179L10.3926 24.7123L10.5405 24.9068C10.785 24.7207 11.0687 24.566 11.3603 24.4312L11.2578 24.2094ZM10.3926 24.7123L10.2446 24.5179C10.0967 24.6304 9.93476 24.7834 9.77633 24.9333L9.94431 25.1108L10.1123 25.2882C10.2761 25.1332 10.4178 25.0002 10.5405 24.9068L10.3926 24.7123ZM9.94431 25.1108L9.77632 24.9333C9.57302 25.1258 9.36825 25.319 9.1625 25.4683C8.95302 25.6203 8.77461 25.7023 8.62698 25.7106L8.6406 25.9545L8.65422 26.1985C8.94442 26.1823 9.21701 26.0326 9.44951 25.8639C9.68573 25.6925 9.9139 25.4761 10.1123 25.2882L9.94431 25.1108ZM8.6406 25.9545L8.62715 25.7105C8.4493 25.7203 8.25616 25.6499 8.03752 25.508C7.81893 25.3662 7.6036 25.1726 7.37949 24.9704L7.2158 25.1518L7.0521 25.3332C7.26962 25.5295 7.51431 25.7511 7.77152 25.918C8.02869 26.0849 8.32714 26.2165 8.65405 26.1985L8.6406 25.9545ZM7.2158 25.1518L7.37947 24.9704C7.1736 24.7846 6.95506 24.5877 6.74179 24.453L6.6113 24.6596L6.48081 24.8662C6.65174 24.9742 6.83786 25.14 7.05212 25.3332L7.2158 25.1518ZM6.6113 24.6596L6.74175 24.453C6.2544 24.1453 5.70784 23.9105 5.17169 23.735L5.09568 23.9672L5.01967 24.1995C5.52871 24.3661 6.03622 24.5855 6.48085 24.8662L6.6113 24.6596ZM5.09568 23.9672L5.17163 23.735C4.28516 23.4451 3.35034 23.2975 2.43049 23.2428L2.41599 23.4868L2.40149 23.7307C3.29026 23.7835 4.18211 23.9256 5.01973 24.1995L5.09568 23.9672ZM2.41599 23.4868L2.43067 23.2428C2.2848 23.2341 2.13539 23.2351 1.99622 23.2356L1.99705 23.4799L1.99787 23.7243C2.14152 23.7238 2.2741 23.723 2.40132 23.7307L2.41599 23.4868ZM1.99705 23.4799L1.99622 23.2356C1.72825 23.2365 1.49058 23.2363 1.27432 23.1886L1.22165 23.4272L1.16899 23.6658C1.44755 23.7273 1.74115 23.7251 1.99787 23.7243L1.99705 23.4799ZM1.22165 23.4272L1.27469 23.1887C1.12341 23.155 1.02371 23.0822 0.867062 22.9435L0.705053 23.1264L0.543045 23.3093C0.710473 23.4576 0.888884 23.6035 1.16862 23.6657L1.22165 23.4272ZM0.705053 23.1264L0.930272 23.0316C0.8294 22.792 0.793635 22.4802 0.779206 22.1801L0.535132 22.1918L0.291057 22.2036C0.30585 22.5113 0.343376 22.897 0.479835 23.2212L0.705053 23.1264ZM0.535132 22.1918L0.779206 22.1801C0.753469 21.6451 0.759935 21.1024 0.766774 20.5533L0.522436 20.5502L0.278099 20.5472C0.27129 21.0939 0.264493 21.6514 0.291057 22.2036L0.535132 22.1918ZM0.522436 20.5502L0.766773 20.5533C0.769828 20.3101 0.772505 20.066 0.772652 19.8228L0.528296 19.8227L0.283939 19.8226C0.283794 20.0626 0.281151 20.3042 0.278099 20.5472L0.522436 20.5502ZM0.528296 19.8227L0.772652 19.8229L0.776558 15.1969L0.532202 15.1967L0.287846 15.1965L0.283939 19.8225L0.528296 19.8227ZM0.532202 15.1967L0.776558 15.1964L0.772652 11.6955L0.528296 11.6957L0.283939 11.696L0.287846 15.197L0.532202 15.1967ZM0.528296 11.6957L0.772652 11.6956C0.772545 11.5371 0.765451 11.3659 0.758793 11.1959L0.514624 11.2055L0.270455 11.2151C0.277242 11.3883 0.28384 11.549 0.283939 11.6959L0.528296 11.6957ZM0.514624 11.2055L0.758795 11.196C0.740234 10.72 0.724325 10.2527 0.814873 9.89775L0.5781 9.83735L0.341328 9.77694C0.229562 10.215 0.25275 10.761 0.270453 11.215L0.514624 11.2055ZM0.5781 9.83735L0.814859 9.89781C0.846166 9.77521 0.901812 9.72242 1.0738 9.61268L0.942358 9.40668L0.810919 9.20069C0.618083 9.32373 0.421314 9.46372 0.341342 9.77689L0.5781 9.83735ZM0.942358 9.40668L0.958166 9.65053C2.92432 9.52307 5.06835 9.9325 6.78548 10.8878L6.90427 10.6743L7.02307 10.4607C5.21366 9.45409 2.97398 9.03011 0.926551 9.16284L0.942358 9.40668ZM6.90427 10.6743L6.78548 10.8878C7.35376 11.2039 7.86785 11.5924 8.40342 11.9971L8.55076 11.8022L8.69809 11.6072C8.1671 11.2059 7.62615 10.7962 7.02306 10.4607L6.90427 10.6743ZM8.55076 11.8022L8.69684 11.9981C8.9965 11.7746 9.29551 11.5536 9.59975 11.3457L9.46189 11.144L9.32403 10.9422C9.01068 11.1563 8.70457 11.3827 8.40468 11.6063L8.55076 11.8022ZM9.46189 11.144L9.59975 11.3457C11.2158 10.2415 13.1451 9.69301 15.1066 9.64413L15.1006 9.39985L15.0945 9.15557C13.0516 9.20648 11.0278 9.77798 9.32403 10.9422L9.46189 11.144ZM15.1006 9.39985L15.1067 9.64413C15.1927 9.64198 15.2838 9.63674 15.3704 9.63214L15.3574 9.38813L15.3444 9.14412C15.2541 9.14892 15.1718 9.15363 15.0945 9.15557L15.1006 9.39985ZM15.126 10.9594L15.1239 10.7151C14.9044 10.7169 14.6132 10.7012 14.3526 10.7357L14.3847 10.978L14.4169 11.2202C14.6376 11.1909 14.8613 11.206 15.128 11.2038L15.126 10.9594ZM14.3847 10.978L14.3627 10.7346C13.5209 10.8107 12.5583 11.0027 11.66 11.3452C10.7636 11.687 9.9149 12.1849 9.31988 12.8829L9.50583 13.0414L9.69179 13.2C10.2152 12.586 10.9825 12.1266 11.8341 11.8019C12.6838 11.4779 13.6015 11.2941 14.4067 11.2213L14.3847 10.978ZM9.50583 13.0414L9.31918 12.8837C9.26776 12.9446 9.21945 13.0067 9.17375 13.0675L9.36912 13.2143L9.56448 13.3611C9.60697 13.3045 9.64919 13.2504 9.69249 13.1991L9.50583 13.0414ZM9.36912 13.2143L9.12476 13.2142L9.12183 23.515L9.36619 23.5151L9.61054 23.5152L9.61347 13.2144L9.36912 13.2143ZM9.36619 23.5151L9.50986 23.7127C9.69847 23.5756 9.8722 23.4436 10.0554 23.3164L9.91599 23.1157L9.7766 22.915C9.58827 23.0458 9.39965 23.1887 9.22251 23.3174L9.36619 23.5151ZM9.91599 23.1157L10.0413 23.3254C11.5221 22.4409 13.387 22.2831 15.1513 22.1563L15.1338 21.9125L15.1162 21.6688C13.3728 21.7942 11.3875 21.952 9.79068 22.9059L9.91599 23.1157ZM15.1338 21.9125L15.3781 21.9125C15.3782 18.2683 15.4268 14.606 15.3703 10.9556L15.126 10.9594L14.8816 10.9632C14.9381 14.6089 14.8895 18.2593 14.8894 21.9125L15.1338 21.9125ZM2.00095 10.9614L1.75667 10.9553C1.71881 12.4838 1.72715 14.0179 1.73511 15.5447L1.97947 15.5434L2.22382 15.5421C2.21585 14.014 2.20759 12.4873 2.24523 10.9674L2.00095 10.9614ZM1.97947 15.5434L1.73511 15.5447C1.73841 16.1709 1.74185 16.7961 1.74195 17.4204L1.9863 17.4204L2.23066 17.4203C2.23056 16.7945 2.22711 16.168 2.22382 15.5421L1.97947 15.5434ZM1.9863 17.4204L1.74195 17.4204C1.74204 17.8779 1.73612 18.3391 1.73025 18.803L1.97458 18.8061L2.21892 18.8092C2.22479 18.346 2.23076 17.8815 2.23066 17.4203L1.9863 17.4204ZM1.97458 18.8061H1.73023V18.81H1.97458H2.21894V18.8061H1.97458ZM1.97458 18.81L1.73025 18.8069C1.71733 19.8316 1.70441 20.8713 1.75593 21.8946L1.99998 21.8823L2.24402 21.87C2.19341 20.8646 2.20597 19.8404 2.21892 18.8131L1.97458 18.81ZM1.99998 21.8823L1.97902 22.1257C4.0149 22.301 5.97983 22.5004 7.60443 23.6926L7.749 23.4956L7.89357 23.2985C6.14215 22.0133 4.03792 21.8125 2.02094 21.6388L1.99998 21.8823ZM7.749 23.4956L7.99335 23.4948C7.98338 20.0777 8.00212 16.6607 8.04997 13.2441L7.80564 13.2407L7.56131 13.2372C7.51342 16.6567 7.49466 20.0764 7.50464 23.4963L7.749 23.4956ZM7.80564 13.2407L7.98304 13.0726C6.60627 11.6192 4.46567 10.7695 2.49414 10.7142L2.48728 10.9584L2.48042 11.2027C4.33862 11.2549 6.35096 12.0603 7.62824 13.4087L7.80564 13.2407ZM2.48728 10.9584L2.49251 10.7141C2.32587 10.7106 2.15911 10.7117 1.99299 10.7171L2.00095 10.9614L2.00891 11.2056C2.16667 11.2005 2.32462 11.1994 2.48205 11.2027L2.48728 10.9584Z" fill="#010101"/>
<path d="M22.8605 10.5128C24.8179 10.4788 28.1145 10.4212 29.2003 10.837C30.0294 11.1547 30.7347 11.7797 31.0959 12.5968C31.4518 13.4023 31.4771 14.4681 31.1544 15.2882C30.8097 16.1638 30.1773 16.534 29.3595 16.8868C29.4226 16.9098 29.4869 16.9321 29.5509 16.9542C29.7261 17.0147 29.9026 17.076 30.0675 17.1573C30.8227 17.5367 31.3999 18.1963 31.675 18.9952C32.0073 19.975 31.8796 21.0726 31.4298 21.9903C31.0944 22.5682 30.6242 23.0155 30.0421 23.3409C29.53 23.6273 29.0235 23.7417 28.4455 23.8184C27.5668 23.9352 22.4695 24.012 21.8293 23.794C21.743 23.7647 21.6569 23.7319 21.6173 23.6466C21.523 23.4422 21.5101 23.1289 21.5002 22.8878L21.4972 22.8214C21.4358 21.4512 21.456 20.0626 21.4757 18.6798C21.4845 18.0647 21.4927 17.4506 21.4943 16.8399C21.4958 16.2515 21.4883 15.6589 21.4806 15.0655C21.4657 13.9085 21.4512 12.7472 21.5041 11.6026C21.5156 11.3546 21.5367 11.0779 21.6261 10.8448C21.6945 10.6669 21.7818 10.6055 21.9494 10.5265C22.195 10.5248 22.5058 10.5189 22.8605 10.5128ZM27.7541 17.9503C27.0406 17.7802 24.7885 17.898 23.9308 17.8985L23.9318 21.8087C24.9382 21.8107 27.1291 21.9377 27.9914 21.7169C28.3099 21.6353 28.5626 21.5074 28.8048 21.2852C29.1928 20.8278 29.3941 20.3664 29.3361 19.753C29.2844 19.2078 29.0514 18.744 28.6271 18.3936C28.3737 18.1816 28.0748 18.0299 27.7541 17.9503ZM24.6418 12.4962C24.3702 12.5049 24.1263 12.5125 23.9298 12.5128L23.9318 15.9933C24.1603 15.9939 24.4386 16.0011 24.7423 16.0089C25.7463 16.0346 27.0269 16.0676 27.6955 15.8966C28.0069 15.8169 28.2648 15.6909 28.5138 15.4884C28.8406 15.0926 29.0187 14.6405 28.9767 14.1202C28.9399 13.6627 28.7216 13.215 28.3566 12.9317C27.6693 12.3985 25.8674 12.4566 24.6418 12.4962Z" fill="#010101"/>
<path d="M43.0544 18.2976C42.678 15.4725 40.0822 13.4879 37.2575 13.8655C34.4349 14.2429 32.4522 16.8362 32.8279 19.6587C33.2037 22.4815 35.7959 24.4657 38.6189 24.0918C41.444 23.717 43.4302 21.1224 43.0544 18.2976ZM37.5878 16.0508C38.1611 16.0222 38.6668 16.0321 39.1753 16.3419C39.746 16.6898 40.101 17.2841 40.2556 17.9224C40.4747 18.8274 40.4234 20.0736 39.9144 20.8785C39.5497 21.4552 39.0415 21.7103 38.3981 21.8521C37.7807 21.9141 37.1681 21.856 36.6391 21.5012C36.0813 21.1268 35.7565 20.5159 35.6303 19.8689C35.451 18.9501 35.5073 17.7562 36.0624 16.9695C36.4434 16.4296 36.9512 16.1635 37.5878 16.0508Z" fill="#010101"/>
<path d="M54.1245 18.2664C53.7345 15.442 51.1248 13.4716 48.3015 13.8697C45.4894 14.2662 43.5287 16.8631 43.9172 19.6763C44.3058 22.4888 46.8974 24.4574 49.7114 24.0767C52.5367 23.6945 54.5145 21.0906 54.1245 18.2664ZM48.6177 16.0514C49.1753 16.0055 49.7148 16.0228 50.2162 16.3037C50.8115 16.6372 51.1751 17.2226 51.3447 17.8689C51.5881 18.7976 51.5401 19.9954 51.0314 20.8326C50.6712 21.4259 50.1576 21.702 49.5008 21.8496C48.886 21.9293 48.2799 21.8608 47.7511 21.5134C47.1867 21.1424 46.8592 20.5384 46.7219 19.8899C46.5284 18.9735 46.591 17.7931 47.1256 16.9966C47.4882 16.456 47.9931 16.1801 48.6177 16.0514Z" fill="#010101"/>
<path d="M56.1811 10.0956C56.2197 10.092 56.2583 10.0892 56.2969 10.0879C56.6801 10.0744 57.5334 10.0002 57.7934 10.351C57.9043 10.5004 57.9204 10.8127 57.9341 10.9969C57.9923 11.7752 57.9454 12.5893 57.9454 13.371L57.9463 17.9736C58.4908 17.3265 59.1173 16.734 59.6915 16.1115C60.2584 15.4966 60.8034 14.7896 61.4313 14.2419C61.5809 14.1115 61.6943 14.0424 61.8878 13.9896C62.289 13.8804 63.7425 13.7994 64.0484 14.0172C64.1266 14.0727 64.1931 14.1804 64.1872 14.2788C64.1598 14.7169 61.2657 17.5704 60.7613 18.0698C61.6894 19.4188 62.6253 20.7617 63.5695 22.0993C63.8045 22.4405 64.4726 23.1726 64.3866 23.5953C64.368 23.6872 64.2952 23.7678 64.2141 23.8123C63.7801 24.0513 62.1131 23.8939 61.5926 23.7243C61.2207 23.3504 60.9177 22.8099 60.6186 22.3755L58.8075 19.7349L57.9419 20.4871C57.9385 21.1796 58.1457 23.217 57.7005 23.6813C57.5011 23.8895 57.2406 23.9056 56.9694 23.9081C56.555 23.9125 55.7535 23.9814 55.4505 23.6852C55.3728 22.8876 55.3987 22.0803 55.3982 21.2798L55.3967 17.8612L55.3972 13.1771C55.3972 12.3446 55.3674 11.4997 55.406 10.6685C55.4114 10.5566 55.4143 10.4601 55.4808 10.3645C55.6401 10.1339 55.9289 10.1299 56.1811 10.0956Z" fill="#010101"/>
<path d="M73.789 13.8994C74.3354 13.8875 75.4233 13.7666 75.9149 13.9703C76.0992 14.0466 76.1827 14.2347 76.2653 14.4069C76.6153 15.1364 76.8445 15.9769 77.126 16.7387C77.6161 18.0642 78.1439 19.3753 78.641 20.6977C78.9298 19.9514 80.9247 14.3906 81.2517 14.1132C81.412 13.9775 81.7159 13.9483 81.9158 13.9424C82.3366 13.9301 83.1225 13.8372 83.4411 14.1311C83.5217 14.3206 83.511 14.4242 83.4646 14.6273C83.3013 15.3366 82.9539 16.0735 82.6992 16.7573L81.0625 21.1561L79.9561 24.1549C79.7337 24.7599 79.5378 25.4074 79.2494 25.9831C79.0886 26.3037 78.8931 26.6043 78.6478 26.8667C78.0599 27.4967 77.2907 27.7674 76.4437 27.7968C76.0806 27.8095 75.458 27.8769 75.1779 27.6174C74.9991 27.2557 74.9839 26.4122 75.0993 26.0222C75.2117 25.6425 76.043 25.7148 76.3782 25.5262C76.9178 25.2227 77.0649 24.625 77.2041 24.0693C76.7707 22.7591 73.508 14.747 73.5398 14.2939C73.5535 14.0971 73.6463 14.0128 73.789 13.8994Z" fill="#010101"/>
<path d="M68.4284 13.8607C68.7021 13.819 69.0026 13.8304 69.2807 13.8332C70.3867 13.8442 71.6241 14.0774 72.4207 14.9093C72.7867 15.2918 73.0536 15.8696 73.0135 16.4084C73.0067 16.5003 72.9813 16.6321 72.9031 16.6874C72.5057 16.9682 71.4213 16.9131 70.9492 16.8496C70.5304 16.7932 70.5626 16.5132 70.3046 16.2066C70.0201 15.8693 69.6042 15.7036 69.1712 15.6721C68.6894 15.6371 68.08 15.7939 67.7212 16.1322C67.5629 16.2816 67.3958 16.6665 67.4217 16.8819C67.5331 17.8213 70.18 17.9422 70.9419 18.134C71.5879 18.2967 72.2531 18.5386 72.7692 18.9735C73.2588 19.386 73.4802 19.948 73.5301 20.5765C73.5912 21.3511 73.3654 22.093 72.8513 22.6794C71.9579 23.6984 70.6564 23.998 69.3614 24.0928C68.3659 24.1265 67.2946 23.9902 66.3993 23.5303C65.7498 23.1965 65.1633 22.675 64.9468 21.9557C64.8579 21.6619 64.7987 21.3179 64.9551 21.0393C65.4077 20.6845 66.6441 20.8233 67.1934 20.8433C67.3787 21.1253 67.492 21.4562 67.7452 21.6898C68.1718 22.0832 68.8013 22.202 69.3648 22.1741C69.8256 22.1511 70.3163 22.0202 70.6252 21.6541C70.7957 21.4523 70.8944 21.1933 70.869 20.9269C70.7669 19.8615 68.1425 19.8654 67.3303 19.6778C66.7438 19.5429 66.1456 19.3049 65.6706 18.9286C65.1702 18.5312 64.8505 17.9969 64.7899 17.3565C64.7225 16.5751 64.9634 15.7983 65.4614 15.1924C66.2136 14.2809 67.2951 13.9715 68.4284 13.8607Z" fill="#010101"/>
</g>
<defs>
<clipPath id="clip0_8202_61235">
<rect width="83" height="21" fill="white" transform="translate(0.5 7.938)"/>
</clipPath>
</defs>
</svg>
