<svg aria-hidden="true" style="position: absolute; width: 0; height: 0; overflow: hidden;" version="1.1" xmlns="http://www.w3.org/2000/svg" xmlns:xlink="http://www.w3.org/1999/xlink">
  <defs>
    <symbol id="icon-up-type-one" viewBox="0 0 32 32">
      <path d="M0.781 22.114l3.771 3.771 11.448-11.448 11.448 11.448 3.771-3.771-15.219-15.219-15.219 15.219z"></path>
    </symbol>
    <symbol id="icon-down-type-one" viewBox="0 0 32 32">
      <path d="M27.448 6.115l-11.448 11.448-11.448-11.448-3.771 3.771 15.219 15.219 15.219-15.219-3.771-3.771z"></path>
    </symbol>
    <symbol id="icon-left-type-one" viewBox="0 0 32 32">
      <path d="M22.114 0.781l-15.219 15.219 15.219 15.219 3.771-3.771-11.448-11.448 11.448-11.448-3.771-3.771z"></path>
    </symbol>
    <symbol id="icon-right-type-one" viewBox="0 0 32 32">
      <path d="M9.885 31.866l15.219-15.219-15.219-15.219-3.771 3.771 11.448 11.448-11.448 11.448 3.771 3.771z"></path>
    </symbol>
    <symbol id="icon-up-type-two" viewBox="0 0 32 32">
      <path d="M13.714 10.089v21.911h4.571v-21.911l9.813 9.813 3.232-3.232-15.33-15.33-15.33 15.33 3.232 3.232 9.813-9.813z"></path>
    </symbol>
    <symbol id="icon-down-type-two" viewBox="0 0 32 32">
      <path d="M31.33 15.33l-3.232-3.232-9.813 9.813v-21.911h-4.571v21.911l-9.813-9.813-3.232 3.232 15.33 15.33 15.33-15.33z"></path>
    </symbol>
    <symbol id="icon-left-type-two" viewBox="0 0 32 32">
      <path d="M19.902 28.098l-9.813-9.813h21.911v-4.571h-21.911l9.813-9.813-3.232-3.232-15.33 15.33 15.33 15.33 3.232-3.232z"></path>
    </symbol>
    <symbol id="icon-right-type-two" viewBox="0 0 32 32">
      <path d="M12.098 28.098l3.232 3.232 15.33-15.33-15.33-15.33-3.232 3.232 9.813 9.813h-21.911v4.571h21.911l-9.813 9.813z"></path>
    </symbol>
    <symbol id="icon-minus" viewBox="0 0 32 32">
      <path d="M0 13.714h32v4.571h-32v-4.571z"></path>
    </symbol>
    <symbol id="icon-plus" viewBox="0 0 32 32">
      <path d="M32 13.714h-13.714v-13.714h-4.571v13.714h-13.714v4.571h13.714v13.714h4.571v-13.714h13.714v-4.571z"></path>
    </symbol>
    <symbol id="icon-check" viewBox="0 0 32 32">
      <path d="M10.667 21.517l-7.025-7.025-3.017 3.017 10.042 10.042 20.708-20.708-3.017-3.017-17.692 17.692z"></path>
    </symbol>
    <symbol id="icon-exit" viewBox="0 0 32 32">
      <path d="M27.179 0.918l-11.315 11.312-11.312-11.312-3.771 3.771 11.312 11.312-11.312 11.312 3.771 3.771 11.312-11.312 11.315 11.312 3.771-3.771-11.312-11.312 11.312-11.312-3.771-3.771z"></path>
    </symbol>
    <symbol id="icon-star" viewBox="0 0 32 32">
      <path d="M7.226 19.717l-2.384 10.323c-0.074 0.313-0.052 0.64 0.064 0.94s0.318 0.558 0.582 0.74c0.264 0.183 0.577 0.281 0.899 0.283s0.635-0.093 0.902-0.273l8.712-5.808 8.712 5.808c0.273 0.181 0.594 0.274 0.921 0.267s0.644-0.114 0.908-0.307c0.264-0.193 0.463-0.462 0.57-0.771s0.116-0.644 0.028-0.959l-2.926-10.24 7.258-6.531c0.232-0.209 0.399-0.482 0.477-0.785s0.068-0.622-0.033-0.918-0.285-0.556-0.532-0.749c-0.247-0.192-0.544-0.308-0.856-0.333l-9.122-0.726-3.947-8.738c-0.126-0.281-0.33-0.52-0.589-0.688s-0.56-0.257-0.868-0.257c-0.308 0-0.61 0.089-0.868 0.257s-0.463 0.407-0.589 0.688l-3.947 8.738-9.122 0.725c-0.306 0.024-0.599 0.136-0.844 0.323s-0.43 0.439-0.534 0.728c-0.104 0.289-0.123 0.602-0.055 0.902s0.223 0.573 0.443 0.788l6.742 6.571zM11.79 12.795c0.286-0.023 0.56-0.121 0.794-0.286s0.42-0.39 0.537-0.651l2.878-6.37 2.878 6.37c0.117 0.261 0.303 0.486 0.537 0.651s0.508 0.264 0.794 0.286l6.355 0.504-5.234 4.71c-0.454 0.41-0.635 1.040-0.469 1.629l2.005 7.016-5.978-3.986c-0.262-0.176-0.571-0.27-0.887-0.27s-0.625 0.094-0.887 0.27l-6.246 4.165 1.68-7.274c0.062-0.268 0.053-0.546-0.024-0.81s-0.221-0.503-0.418-0.694l-4.861-4.739 6.544-0.522z"></path>
    </symbol>
    <symbol id="icon-menu" viewBox="0 0 32 32">
      <path d="M0 4h32v4h-32v-4zM8 14h24v4h-24v-4zM18 24h14v4h-14v-4z"></path>
    </symbol>
    <symbol id="icon-email" viewBox="0 0 32 32">
      <path d="M28.8 3.2h-25.6c-1.765 0-3.2 1.435-3.2 3.2v19.2c0 1.765 1.435 3.2 3.2 3.2h25.6c1.765 0 3.2-1.435 3.2-3.2v-19.2c0-1.765-1.435-3.2-3.2-3.2zM28.8 6.4v0.818l-12.8 9.957-12.8-9.955v-0.819h25.6zM3.2 25.6v-14.33l11.818 9.192c0.28 0.22 0.626 0.34 0.982 0.34s0.702-0.12 0.982-0.34l11.818-9.192 0.003 14.33h-25.603z"></path>
    </symbol>
    <symbol id="icon-phone" viewBox="0 0 32 32">
      <path d="M24.77 17.336c-0.156-0.157-0.342-0.281-0.546-0.365s-0.423-0.128-0.645-0.128c-0.221 0-0.44 0.044-0.645 0.128s-0.39 0.209-0.546 0.365l-2.685 2.685c-1.245-0.371-3.567-1.213-5.039-2.685s-2.314-3.795-2.685-5.039l2.685-2.685c0.157-0.156 0.281-0.342 0.365-0.546s0.128-0.423 0.128-0.645c0-0.221-0.044-0.44-0.128-0.645s-0.209-0.39-0.365-0.546l-6.737-6.737c-0.156-0.157-0.342-0.281-0.546-0.365s-0.423-0.128-0.645-0.128c-0.221 0-0.44 0.044-0.645 0.128s-0.39 0.209-0.546 0.365l-4.568 4.568c-0.64 0.64-1 1.519-0.987 2.417 0.039 2.398 0.674 10.729 7.239 17.294s14.895 7.198 17.295 7.239h0.047c0.889 0 1.73-0.35 2.366-0.987l4.568-4.568c0.157-0.156 0.281-0.342 0.365-0.546s0.128-0.423 0.128-0.645c0-0.221-0.044-0.44-0.128-0.645s-0.209-0.39-0.365-0.546l-6.737-6.739zM24.556 28.64c-2.102-0.035-9.293-0.6-14.944-6.252-5.669-5.669-6.218-12.886-6.252-14.946l3.377-3.377 4.355 4.355-2.178 2.178c-0.198 0.198-0.344 0.442-0.423 0.71s-0.092 0.552-0.035 0.826c0.040 0.194 1.029 4.787 3.825 7.582s7.389 3.784 7.582 3.825c0.274 0.059 0.558 0.048 0.826-0.032s0.512-0.226 0.71-0.425l2.179-2.178 4.355 4.355-3.379 3.377z"></path>
    </symbol>
    <symbol id="icon-location" viewBox="0 0 26 32">
      <path d="M12.8 19.2c3.53 0 6.4-2.87 6.4-6.4s-2.87-6.4-6.4-6.4c-3.53 0-6.4 2.87-6.4 6.4s2.87 6.4 6.4 6.4zM12.8 9.6c1.765 0 3.2 1.435 3.2 3.2s-1.435 3.2-3.2 3.2c-1.765 0-3.2-1.435-3.2-3.2s1.435-3.2 3.2-3.2z"></path>
      <path d="M11.872 31.702c0.271 0.193 0.595 0.297 0.928 0.297s0.657-0.104 0.928-0.297c0.486-0.344 11.918-8.598 11.872-18.902 0-7.058-5.742-12.8-12.8-12.8s-12.8 5.742-12.8 12.792c-0.046 10.312 11.386 18.566 11.872 18.91zM12.8 3.2c5.294 0 9.6 4.306 9.6 9.608 0.034 7.101-7.021 13.477-9.6 15.568-2.578-2.093-9.634-8.47-9.6-15.576 0-5.294 4.306-9.6 9.6-9.6z"></path>
    </symbol>
  </defs>
</svg>